<?xml version="1.0" ?><svg height="256" viewBox="0 0 256 256" width="256" xmlns="http://www.w3.org/2000/svg"><defs><style>
      .cls-1 {
        fill: #68a3c8;
      }

      .cls-2 {
        fill: #de7d3a;
      }

      .cls-2, .cls-3, .cls-4, .cls-6 {
        fill-rule: evenodd;
      }

      .cls-3 {
        fill: #f1bb3d;
      }

      .cls-4, .cls-5 {
        fill: #cfdee2;
        stroke: #464646;
        stroke-width: 8px;
      }

      .cls-6 {
        fill: #464646;
      }
    </style></defs><g data-name="stellar xlm" id="stellar_xlm"><g data-name="stellar xlm" id="stellar_xlm-2"><circle class="cls-1" cx="128" cy="128" data-name="Эллипс 24" id="Эллипс_24" r="128"/><path class="cls-2" d="M1126.73,1745.04c8.82,5.1,9.64,20.23,1.82,33.8s-21.32,20.42-30.15,15.32-9.64-20.23-1.82-33.8S1117.9,1739.94,1126.73,1745.04Z" data-name="Эллипс 23" id="Эллипс_23" transform="translate(-1016 -1589)"/><path class="cls-3" d="M1124.52,1749.72c5.34,3.09,5.44,12.92.23,21.96s-13.77,13.87-19.11,10.79-5.43-12.92-.22-21.96S1119.19,1746.64,1124.52,1749.72Z" data-name="Эллипс 23 копия" id="Эллипс_23_копия" transform="translate(-1016 -1589)"/><path class="cls-4" d="M1188.47,1638.83c14.86,8.6,12.95,56.61,7.58,65.91s-47.03,66.09-47.03,66.09a6.866,6.866,0,0,1-9.38,2.52l-43.11-24.93a6.875,6.875,0,0,1-2.51-9.39s27.43-63.03,33.65-73.82S1173.6,1630.24,1188.47,1638.83Z" data-name="Прямоугольник, скругл. углы 2" id="Прямоугольник_скругл._углы_2" transform="translate(-1016 -1589)"/><circle class="cls-5" cx="140.2" cy="100.625" data-name="Эллипс 22" id="Эллипс_22" r="20.61"/><path class="cls-6" d="M1168.22,1739.26s20.69,22.54-1.53,57.66c-0.93,1.61-2.77-16.98-18.49-31.53C1161.56,1747.65,1168.22,1739.26,1168.22,1739.26Zm-57.23-33.08s-29.77-6.66-48.96,30.05c-0.93,1.61,16.02-6.07,36.41.28C1107.08,1716.11,1110.99,1706.18,1110.99,1706.18Z" data-name="Фигура 14 копия" id="Фигура_14_копия" transform="translate(-1016 -1589)"/></g></g></svg>